#!OML:ASF I:\Actors\actors\Patient Classification 2\Patient 1\Session 1\actor1.ASF
:FULLY-SPECIFIED
:DEGREES
392
root -0.651146 18.6622 6.15789 1.71826 -3.26238 -3.33915
lowerback 0.498871 1.08066 1.63262
upperback -1.62881 1.48022 0.827547
thorax -1.92922 0.720974 -0.0982567
lowerneck -11.0432 -2.93222 -3.72082
upperneck 22.3323 -4.31902 4.15933
head 8.97702 -1.91218 1.5647
rclavicle 1.14456e-014 2.38542e-015
rhumerus -48.011 -1.88766 -88.6544
rradius 42.0056
rwrist 19.6044
rhand -6.61165 -30.3503
rfingers 7.12502
rthumb 19.2443 -59.4181
lclavicle 1.14456e-014 2.38542e-015
lhumerus -42.8666 3.60077 88.2442
lradius 38.1517
lwrist -7.35265
lhand -9.7174 -30.3293
lfingers 7.12502
lthumb 16.2558 -0.990758
rfemur 0 0 0
rtibia 0
rfoot 0 0
rtoes 0
lfemur -3.21166 -7.29503 -11.6801
ltibia 22.1679
lfoot -25.0919 15.1008
ltoes -55.269
393
root -0.649727 18.6631 6.15419 1.72736 -3.27867 -3.29723
lowerback 0.425726 1.1038 1.58636
upperback -1.57752 1.50767 0.818198
thorax -1.83599 0.736152 -0.0803502
lowerneck -11.0557 -2.94903 -3.81248
upperneck 22.2864 -4.33357 4.21249
head 8.96759 -1.92115 1.59628
rclavicle -8.56327e-015 -2.68359e-015
rhumerus -47.8908 -1.82323 -88.5684
rradius 41.9717
rwrist 19.6705
rhand -6.50053 -30.5636
rfingers 7.12502
rthumb 19.3511 -59.6207
lclavicle -8.56327e-015 -2.68359e-015
lhumerus -42.7281 3.60762 88.2427
lradius 38.1941
lwrist -7.0847
lhand -9.86919 -30.3056
lfingers 7.12502
lthumb 16.1096 -0.955143
rfemur 0 0 0
rtibia 0
rfoot 0 0
rtoes 0
lfemur -3.23252 -7.25532 -11.7275
ltibia 22.1605
lfoot -25.0573 15.0815
ltoes -55.2554
394
root -0.648037 18.6639 6.1502 1.75158 -3.26664 -3.28764
lowerback 0.359407 1.12105 1.58167
upperback -1.55728 1.52849 0.803622
thorax -1.77741 0.746985 -0.0913536
lowerneck -11.0066 -2.96614 -3.83315
upperneck 22.2469 -4.35952 4.24034
head 8.94714 -1.93305 1.60678
rclavicle -2.1475e-014 1.15295e-014
rhumerus -47.7834 -1.8185 -88.4623
rradius 41.9563
rwrist 19.7136
rhand -6.43995 -30.545
rfingers 7.12502
rthumb 19.4094 -59.5963
lclavicle -2.1475e-014 1.15295e-014
lhumerus -42.6269 3.52683 88.2714
lradius 38.2173
lwrist -6.77245
lhand -9.98926 -30.2726
lfingers 7.12502
lthumb 15.994 -0.912899
rfemur 0 0 0
rtibia 0
rfoot 0 0
rtoes 0
lfemur -3.28671 -7.11968 -11.7158
ltibia 22.1584
lfoot -24.9642 14.9428
ltoes -55.217
395
root -0.646877 18.6641 6.14604 1.75811 -3.26758 -3.31657
lowerback 0.315171 1.12611 1.60658
upperback -1.518 1.53399 0.813428
thorax -1.71183 0.750043 -0.093887
lowerneck -11.0502 -2.97473 -3.85344
upperneck 22.2734 -4.36702 4.24066
head 8.96522 -1.93738 1.60902
rclavicle 9.59757e-015 3.77691e-015
rhumerus -47.598 -1.74252 -88.3444
rradius 41.8895
rwrist 19.7494
rhand -6.51933 -30.3426
rfingers 7.12502
rthumb 19.3331 -59.4016
lclavicle 9.59757e-015 3.77691e-015
lhumerus -42.5217 3.48718 88.3072
lradius 38.3074
lwrist -6.60193
lhand -10.0006 -30.2208
lfingers 7.12502
lthumb 15.9831 -0.860148
rfemur 0 0 0
rtibia 0
rfoot 0 0
rtoes 0
lfemur -3.31024 -7.01832 -11.6664
ltibia 22.1564
lfoot -24.9255 14.8234
ltoes -55.153
396
root -0.645665 18.6643 6.14336 1.75313 -3.28339 -3.30175
lowerback 0.26913 1.13729 1.59078
upperback -1.4802 1.54691 0.807476
thorax -1.64726 0.757253 -0.0898724
lowerneck -11.094 -2.97094 -3.82591
upperneck 22.3047 -4.36005 4.21053
head 8.98257 -1.93405 1.59448
rclavicle -2.90754e-014 1.39149e-015
rhumerus -47.407 -1.76322 -88.1752
rradius 41.8325
rwrist 19.7981
rhand -6.67989 -30.3274
rfingers 7.12502
rthumb 19.1787 -59.4018
lclavicle -2.90754e-014 1.39149e-015
lhumerus -42.4217 3.42699 88.3486
lradius 38.4181
lwrist -6.47266
lhand -9.937 -30.1885
lfingers 7.12502
lthumb 16.0443 -0.832814
rfemur 0 0 0
rtibia 0
rfoot 0 0
rtoes 0
lfemur -3.2999 -7.15413 -11.7103
ltibia 22.1555
lfoot -25.0227 14.9194
ltoes -55.1054
397
root -0.643632 18.6648 6.14123 1.7703 -3.27127 -3.27536
lowerback 0.226373 1.1487 1.58809
upperback -1.48832 1.56075 0.773684
thorax -1.63053 0.764046 -0.122327
lowerneck -11.0194 -2.95563 -3.69939
upperneck 22.2849 -4.34859 4.13636
head 8.95661 -1.92696 1.55009
rclavicle 4.70561e-015 -2.98177e-015
rhumerus -47.2728 -1.90105 -87.9993
rradius 41.8376
rwrist 19.77
rhand -6.71212 -30.483
rfingers 7.12502
rthumb 19.1477 -59.5605
lclavicle 4.70561e-015 -2.98177e-015
lhumerus -42.3695 3.2533 88.4156
lradius 38.5088
lwrist -6.29022
lhand -9.86136 -30.1381
lfingers 7.12502
lthumb 16.1171 -0.788262
rfemur 0 0 0
rtibia 0
rfoot 0 0
rtoes 0
lfemur -3.32005 -7.36972 -11.7747
ltibia 22.1496
lfoot -25.1171 15.0893
ltoes -55.0633
398
root -0.641774 18.6653 6.1374 1.78464 -3.2249 -3.27355
lowerback 0.231353 1.13549 1.5971
upperback -1.50871 1.54359 0.767343
thorax -1.65407 0.755064 -0.133954
lowerneck -10.9998 -2.93504 -3.63385
upperneck 22.3371 -4.32308 4.08202
head 8.967 -1.91507 1.52387
rclavicle 2.08972e-014 -3.57812e-015
rhumerus -47.1488 -1.95975 -87.8328
rradius 41.8954
rwrist 19.6797
rhand -6.67568 -30.6402
rfingers 7.12502
rthumb 19.1827 -59.7142
lclavicle 2.08972e-014 -3.57812e-015
lhumerus -42.3417 3.12101 88.5055
lradius 38.6282
lwrist -6.25299
lhand -9.78166 -30.0095
lfingers 7.12502
lthumb 16.1939 -0.665865
rfemur 0 0 0
rtibia 0
rfoot 0 0
rtoes 0
lfemur -3.35898 -7.42325 -11.7764
ltibia 22.1356
lfoot -25.0838 15.1167
ltoes -55.0743
399
root -0.641027 18.6655 6.13272 1.79692 -3.17119 -3.27483
lowerback 0.251098 1.1104 1.58686
upperback -1.53382 1.51112 0.783314
thorax -1.69205 0.73875 -0.112109
lowerneck -11.0258 -2.91568 -3.66155
upperneck 22.4671 -4.29455 4.08125
head 9.01604 -1.90286 1.53165
rclavicle 1.51573e-014 -8.94531e-015
rhumerus -47.035 -2.02027 -87.6295
rradius 41.953
rwrist 19.6403
rhand -6.82446 -30.5802
rfingers 7.12502
rthumb 19.0396 -59.6683
lclavicle 1.51573e-014 -8.94531e-015
lhumerus -42.351 3.05574 88.594
lradius 38.7744
lwrist -6.36076
lhand -9.73703 -29.8991
lfingers 7.12502
lthumb 16.2369 -0.558995
rfemur 0 0 0
rtibia 0
rfoot 0 0
rtoes 0
lfemur -3.40562 -7.39797 -11.754
ltibia 22.1279
lfoot -25.0625 15.004
ltoes -55.0145
